<svg xmlns="http://www.w3.org/2000/svg" viewBox="0 0 512 512"><title>Angelo's Logo</title><defs><style>.a{fill:#fff}</style></defs><path d="M73.91 286.5c-3.035 4.82-5.71 8.92-7.5 12.135-15.165 25.5-16.235 27.295-16.41 27.295-13.385 2.14-9.1-5 9.095-34.255C72.12 270.8 121.54 198.37 132.78 179.455c.18-.175 2.5 0 5.175.715.175-.535 28.185-.18 24.795 8.385a289.309 289.309 0 00-12.31 47.815l-5.705 34.79c-27.12 172.875 158.78-1.25 258 89.56 1.07 1.07-11.775 27.83-20 18.73-91.88-102.58-286 86-259.585-104.545v-.18a.175.175 0 00-.18.17v.01c-7.135 8.395-20.695 12.32-49.06 11.595zm9.455-14.27c12.665.535 36.93 1.425 39.965 1.425 2.855-20.16 7.315-51.38 10.88-73.145-6.78 8.92-16.41 21.945-26.76 36.57-8.74 12.5-17.125 24.635-24.085 35.16zM154 291.685c5.175-20.875 14.095-47.635 18.375-66.37.18-.71 26.405.895 23.91 8.39a259.971 259.971 0 00-13.56 36.035c9.275-20.875 19.8-36.395 30.5-36.395 14.45 0 15.165 18.555 6.065 46.92-8.92 27.3-8.385 37.47-2.85 33 4.1-3.39 11.235-14.81 17.125-26.23 3.39-6.24 4.28-6.78 4.28-3.565 0 1.07-.535 3.565-2.675 7.315-5.35 9.455-11.06 18.91-16.95 25.155-5.35 5.71-12.31 13.2-20 10-5.53-2.32-9.455-18.91-1.07-45.675 8.03-25.5 14.095-34.25 8.385-34.25-8.385 0-21.05 23.37-35.325 70.47-1.965 8.565-1.965 9.455-1.965 9.455-12.445 2.14-21.545-4.995-14.245-34.255zm113.66-1.425c-4.105 12.31-11.775 35.145-24.975 35.145-14.455 0-23.195-23.195-15.88-46.92 10.88-35.685 38.355-51.205 45.85-43a45.998 45.998 0 016.78 10.17c7.135.715 18.735 3.925 17.5 8.03-.36 1.605-8.03 22.3-24.62 68.685-13.915 39.075-36.22 52.275-45.5 43-6.78-6.78-9.815-21.945-3.39-37.645l.18-.18c5-.715 22.655 3.035 21.05 8.385-.355 1.43-19.625 21.055-16.235 22.66 8.03 4.28 16.59-8.92 29.08-36.22 10-21.94 10.16-32.29 10.16-32.11zM275 246a15.191 15.191 0 00-3.925-3.75c-7.135-3.925-16.235 15.345-22.3 36.22-5.89 20.87-6.78 36.035-.36 36.035 6.065 0 8.565-8.74 15.7-32.29 4.285-14.45 8.03-26.585 10-33.72z"/><path d="M313.335 298.465c-.18 10.17 2.675 16.77 7.67 17.66 7.5 1.43 26.94-9.63 37.11-29.08 3.39-6.24 4.28-6.78 4.28-3.565 0 1.07-.535 3.565-2.675 7.315-10.345 18-31.22 34.61-45.85 34.61-16.055 0-26.585-23.195-19.27-46.92 11.065-35.685 41.57-50.85 49.6-43 2.32 2.5 15 8.92 13.56 16.77-2.14 11.245-23.195 31.745-44.425 46.21zm.535-6.245c20-17.66 34.075-47.635 28.725-50.5-7.315-3.745-19.805 15.88-25.87 36.755a94.195 94.195 0 00-2.855 13.745zm49.595-42.815q4.82-15 9.635-27.835c-28.545-1.07-42.815-2.855-62.265 6.425-1.425.71-20.5-18.38-9.1-23.195 19.09-8.03 46.565 2.675 74.755 8.205 24.265-60.835 46.565-76.715 68.15-81.71 19.27-4.46 38 15 32.115 37.645-7.315 27.655-38.18 52.81-74.75 53.165h-6.78l-4.82 15c-8.385 25.695-17.305 54.06-19.265 66-1.25 8.74-.18 10.88 4.1 7.315 3.39-2.675 9.635-11.955 15.525-23.375 3.39-6.24 4.28-6.78 4.28-3.39 0 .895-.535 3.39-2.675 7.14-5.355 9.635-11.06 18.91-16.95 25.155-6.6 7.315-12.13 10-16.415 8.205-7.85-2.855-12.505-22.48 4.46-74.75zm34.075-33.545h5.89c27.655-.355 48.885-22.655 52.81-45.67 3.745-20.5-2.14-34.79-15.345-32.115-14.63 2.855-24.44 21.59-43.355 77.785zm41.215 23.195a25.447 25.447 0 014.28-.355c14.095 0 18 18.375 10.53 41.565-9.815 31.4-33 45.14-48.53 45.14s-25.87-23-18.555-46.745c11.24-36.395 41.925-51.56 49.6-43zm-2.14 4.28a10.87 10.87 0 00-2.14-1.96c-9.1-4.64-19.09 13.38-25.87 37.285-6.065 20.875-7.85 41.93-.535 41.93 9.455 0 17.5-19.45 23.55-40.325 4.995-17.84 7.67-31.575 4.995-36.93z"/><path class="a" d="M65.87 286.5c-3.035 4.82-5.71 8.92-7.5 12.135-15.165 25.5-16.235 27.295-16.415 27.295-13.38 2.14-9.095-5 9.1-34.255C64.08 270.8 113.5 198.37 124.74 179.455c.18-.175 2.5 0 5.175.715.175-.535 28.185-.18 24.795 8.385a289.307 289.307 0 00-12.31 47.815l-5.705 34.79c-27.12 172.875 158.78-1.25 258 89.56 1.07 1.07-11.775 27.83-20 18.73-91.88-102.58-286 86-259.585-104.545v-.18a.175.175 0 00-.18.17v.01c-7.135 8.395-20.695 12.32-49.06 11.595zm9.455-14.27c12.665.535 36.93 1.425 39.965 1.425 2.855-20.16 7.315-51.38 10.88-73.145-6.78 8.92-16.41 21.945-26.76 36.57-8.74 12.5-17.125 24.635-24.085 35.16zM146 291.685c5.175-20.875 14.095-47.635 18.375-66.37.18-.71 26.405.895 23.905 8.39a261.255 261.255 0 00-13.555 36.035c9.275-20.875 19.8-36.395 30.5-36.395 14.45 0 15.165 18.555 6.065 46.92-8.92 27.3-8.385 37.47-2.85 33 4.1-3.39 11.235-14.81 17.125-26.23 3.39-6.24 4.28-6.78 4.28-3.565 0 1.07-.535 3.565-2.675 7.315-5.35 9.455-11.06 18.91-16.95 25.155-5.35 5.71-12.31 13.2-20 10-5.53-2.32-9.455-18.91-1.07-45.675 8.03-25.5 14.095-34.25 8.385-34.25-8.385 0-21.055 23.37-35.325 70.47-1.965 8.565-1.965 9.455-1.965 9.455-12.485 2.14-21.585-4.995-14.245-34.255zm113.62-1.425c-4.105 12.31-11.775 35.145-24.975 35.145-14.455 0-23.195-23.195-15.88-46.92 10.88-35.685 38.355-51.205 45.85-43a45.997 45.997 0 016.78 10.17c7.135.715 18.735 3.925 17.5 8.03-.36 1.605-8.03 22.3-24.62 68.685-13.915 39.075-36.22 52.275-45.5 43-6.78-6.78-9.815-21.945-3.39-37.645l.18-.18c5-.715 22.655 3.035 21.05 8.385-.355 1.43-19.625 21.055-16.235 22.66 8.03 4.28 16.59-8.92 29.08-36.22 9.98-21.94 10.16-32.29 10.16-32.11zm7.315-44.245a15.191 15.191 0 00-3.925-3.75c-7.135-3.925-16.235 15.345-22.3 36.22-5.89 20.87-6.78 36.035-.36 36.035 6.065 0 8.565-8.74 15.7-32.29 4.285-14.45 8.03-26.585 10-33.72z"/><path class="a" d="M305.295 298.465c-.18 10.17 2.675 16.77 7.67 17.66 7.5 1.43 26.94-9.63 37.11-29.08 3.39-6.24 4.28-6.78 4.28-3.565 0 1.07-.535 3.565-2.675 7.315-10.345 18-31.22 34.61-45.85 34.61-16.055 0-26.585-23.195-19.27-46.92 11.065-35.685 41.57-50.85 49.6-43 2.32 2.5 15 8.92 13.56 16.77-2.145 11.245-23.195 31.745-44.425 46.21zm.535-6.245c20-17.66 34.075-47.635 28.725-50.5-7.315-3.745-19.805 15.88-25.87 36.755a94.195 94.195 0 00-2.855 13.745zm49.595-42.815q4.82-15 9.635-27.835c-28.545-1.07-42.82-2.855-62.265 6.425-1.425.71-20.5-18.38-9.1-23.195 19.09-8.03 46.565 2.675 74.755 8.205 24.265-60.835 46.565-76.715 68.15-81.71 19.27-4.46 38 15 32.115 37.645-7.315 27.655-38.18 52.81-74.75 53.165h-6.78l-4.82 15c-8.385 25.695-17.305 54.06-19.265 66-1.25 8.74-.18 10.88 4.1 7.315 3.39-2.675 9.635-11.955 15.525-23.375 3.39-6.24 4.28-6.78 4.28-3.39 0 .895-.535 3.39-2.675 7.14-5.355 9.635-11.065 18.91-16.95 25.155-6.6 7.315-12.13 10-16.415 8.205-7.85-2.855-12.465-22.48 4.46-74.75zM389.5 215.86h5.89c27.655-.355 48.885-22.655 52.81-45.67 3.745-20.5-2.14-34.79-15.345-32.115-14.63 2.855-24.44 21.59-43.355 77.785zm41.215 23.195a25.447 25.447 0 014.28-.355c14.095 0 18 18.375 10.53 41.565-9.815 31.4-33 45.14-48.53 45.14s-25.87-23-18.555-46.745c11.24-36.395 41.925-51.56 49.6-43zm-2.14 4.28a10.87 10.87 0 00-2.14-1.96c-9.1-4.64-19.09 13.38-25.87 37.285-6.065 20.875-7.85 41.93-.535 41.93 9.455 0 17.5-19.45 23.55-40.325 4.995-17.84 7.67-31.575 4.995-36.93z"/></svg>